<?xml version="1.0" encoding="UTF-8" standalone="no"?>
<!DOCTYPE svg PUBLIC "-//W3C//DTD SVG 1.1//EN" "http://www.w3.org/Graphics/SVG/1.1/DTD/svg11.dtd">
<svg width="992px" height="727px" version="1.1" xmlns="http://www.w3.org/2000/svg" xmlns:xlink="http://www.w3.org/1999/xlink" xml:space="preserve" xmlns:serif="http://www.serif.com/" style="fill-rule:evenodd;clip-rule:evenodd;stroke-linecap:square;stroke-miterlimit:2;">
    <g id="Kanax-Logo" serif:id="Kanax Logo">
        <path id="SubBG" d="M184.403,695.2c-9.842,-0 -14.763,-3.739 -14.763,-11.215l-0,-67.999c-0,-7.666 4.921,-11.499 14.763,-11.499l36.768,0c9.843,0 14.764,3.833 14.764,11.499l-0,26.83l-29.528,0l0,-15.331c0,-0.189 -0.094,-0.284 -0.284,-0.284l-6.672,-0c-0.189,-0 -0.284,0.095 -0.284,0.284l0,44.859c0,0.189 0.095,0.284 0.284,0.284l6.672,0c0.19,0 0.284,-0.095 0.284,-0.284l0,-21.152l29.528,0l-0,32.793c-0,7.476 -4.921,11.215 -14.764,11.215l-36.768,-0Zm110.303,28.25c-9.937,-0 -14.906,-3.739 -14.906,-11.215l0,-84.75c0,-0.189 -0.094,-0.284 -0.283,-0.284l-6.956,-0l-0,67.999l-29.528,-0l-0,-113.426l29.528,-0l-0,22.713l22.003,0c9.843,0 14.764,3.833 14.764,11.499l0,84.608c0,0.189 0.095,0.284 0.284,0.284l73.251,0l0,22.572l-88.157,-0Zm58.63,-28.25l-0,-36.058c-0,-0.189 -0.095,-0.284 -0.284,-0.284l-6.956,-0l-0,36.342l-29.528,-0l0,-90.713l51.532,0c9.747,0 14.621,3.833 14.621,11.499l0,26.405c0,4.353 -2.413,6.814 -7.24,7.382c4.922,0.662 7.382,3.17 7.382,7.523l0,37.904l-29.527,-0Zm-0,-67.715c-0,-0.189 -0.095,-0.284 -0.284,-0.284l-6.956,-0l-0,13.628l6.956,0c0.189,0 0.284,-0.095 0.284,-0.284l-0,-13.06Zm51.247,67.715c-9.842,-0 -14.764,-3.739 -14.764,-11.215l0,-67.999c0,-7.666 4.922,-11.499 14.764,-11.499l36.768,0c9.842,0 14.764,3.833 14.764,11.499l-0,67.999c-0,7.476 -4.922,11.215 -14.764,11.215l-36.768,-0Zm22.004,-67.715c0,-0.189 -0.095,-0.284 -0.284,-0.284l-6.672,-0c-0.189,-0 -0.284,0.095 -0.284,0.284l0,44.859c0,0.189 0.095,0.284 0.284,0.284l6.672,0c0.189,0 0.284,-0.095 0.284,-0.284l0,-44.859Zm88.299,95.965c-9.937,-0 -14.906,-3.739 -14.906,-11.215l0,-84.75c0,-0.189 -0.094,-0.284 -0.284,-0.284l-6.672,-0c-0.189,-0 -0.284,0.095 -0.284,0.284l0,67.715l-29.527,-0l-0,-90.713l29.527,0l0,5.821c5.016,-3.881 12.351,-5.821 22.004,-5.821c9.843,0 14.764,3.833 14.764,11.499l-0,84.608c-0,0.189 0.095,0.284 0.284,0.284l36.484,0l-0,22.572l-51.39,-0Zm21.862,-28.25l-0,-90.713l29.528,0l-0,90.713l-29.528,-0Zm51.389,-0c-9.842,-0 -14.763,-3.739 -14.763,-11.215l-0,-67.999c-0,-7.666 4.921,-11.499 14.763,-11.499l36.768,0c9.843,0 14.764,3.833 14.764,11.499l-0,26.83l-29.528,0l0,-15.331c0,-0.189 -0.094,-0.284 -0.284,-0.284l-6.672,-0c-0.189,-0 -0.284,0.095 -0.284,0.284l0,44.859c0,0.189 0.095,0.284 0.284,0.284l6.672,0c0.19,0 0.284,-0.095 0.284,-0.284l0,-21.152l29.528,0l-0,32.793c-0,7.476 -4.921,11.215 -14.764,11.215l-36.768,-0Zm58.63,28.25l-0,-118.963l29.528,0l-0,96.391l73.393,0l-0,22.572l-102.921,-0Zm51.389,-28.25c-9.842,-0 -14.763,-3.739 -14.763,-11.215l-0,-67.999c-0,-7.666 4.921,-11.499 14.763,-11.499l36.768,0c9.843,0 14.764,3.833 14.764,11.499l-0,45.285l-36.768,0l0,11.073c0,0.189 0.095,0.284 0.284,0.284l6.672,0c0.189,0 0.284,-0.095 0.284,-0.284l0,-5.394l29.528,-0l-0,17.035c-0,7.476 -4.921,11.215 -14.764,11.215l-36.768,-0Zm22.004,-67.715c0,-0.189 -0.095,-0.284 -0.284,-0.284l-6.672,-0c-0.189,-0 -0.284,0.095 -0.284,0.284l0,12.634l7.24,0l0,-12.634Zm51.106,67.715c-9.843,-0 -14.764,-3.739 -14.764,-11.215l-0,-17.035l29.528,-0l-0,5.394c-0,0.189 0.094,0.284 0.283,0.284l6.673,0c0.189,0 0.283,-0.095 0.283,-0.284l0,-10.789c0,-0.189 -0.094,-0.284 -0.283,-0.284l-21.72,0c-9.843,0 -14.764,-3.833 -14.764,-11.498l-0,-33.787c-0,-7.666 4.921,-11.499 14.764,-11.499l36.767,0c9.843,0 14.764,3.833 14.764,11.499l0,16.751l-29.528,0l0,-5.252c0,-0.189 -0.094,-0.284 -0.283,-0.284l-6.673,-0c-0.189,-0 -0.283,0.095 -0.283,0.284l-0,10.789c-0,0.189 0.094,0.284 0.283,0.284l21.72,-0c9.843,-0 14.764,3.738 14.764,11.215l0,34.212c0,7.476 -4.921,11.215 -14.764,11.215l-36.767,-0Z" style="fill:#fff;"/>
        <path id="Sub" d="M184.403,695.2c-9.842,-0 -14.763,-3.739 -14.763,-11.215l-0,-67.999c-0,-7.666 4.921,-11.499 14.763,-11.499l36.768,0c9.843,0 14.764,3.833 14.764,11.499l-0,26.83l-29.528,0l0,-15.331c0,-0.189 -0.094,-0.284 -0.284,-0.284l-6.672,-0c-0.189,-0 -0.284,0.095 -0.284,0.284l0,44.859c0,0.189 0.095,0.284 0.284,0.284l6.672,0c0.19,0 0.284,-0.095 0.284,-0.284l0,-21.152l29.528,0l-0,32.793c-0,7.476 -4.921,11.215 -14.764,11.215l-36.768,-0Zm110.303,28.25c-9.937,-0 -14.906,-3.739 -14.906,-11.215l0,-84.75c0,-0.189 -0.094,-0.284 -0.283,-0.284l-6.956,-0l-0,67.999l-29.528,-0l-0,-113.426l29.528,-0l-0,22.713l22.003,0c9.843,0 14.764,3.833 14.764,11.499l0,84.608c0,0.189 0.095,0.284 0.284,0.284l73.251,0l0,22.572l-88.157,-0Zm58.63,-28.25l-0,-36.058c-0,-0.189 -0.095,-0.284 -0.284,-0.284l-6.956,-0l-0,36.342l-29.528,-0l0,-90.713l51.532,0c9.747,0 14.621,3.833 14.621,11.499l0,26.405c0,4.353 -2.413,6.814 -7.24,7.382c4.922,0.662 7.382,3.17 7.382,7.523l0,37.904l-29.527,-0Zm-0,-67.715c-0,-0.189 -0.095,-0.284 -0.284,-0.284l-6.956,-0l-0,13.628l6.956,0c0.189,0 0.284,-0.095 0.284,-0.284l-0,-13.06Zm51.247,67.715c-9.842,-0 -14.764,-3.739 -14.764,-11.215l0,-67.999c0,-7.666 4.922,-11.499 14.764,-11.499l36.768,0c9.842,0 14.764,3.833 14.764,11.499l-0,67.999c-0,7.476 -4.922,11.215 -14.764,11.215l-36.768,-0Zm22.004,-67.715c0,-0.189 -0.095,-0.284 -0.284,-0.284l-6.672,-0c-0.189,-0 -0.284,0.095 -0.284,0.284l0,44.859c0,0.189 0.095,0.284 0.284,0.284l6.672,0c0.189,0 0.284,-0.095 0.284,-0.284l0,-44.859Zm88.299,95.965c-9.937,-0 -14.906,-3.739 -14.906,-11.215l0,-84.75c0,-0.189 -0.094,-0.284 -0.284,-0.284l-6.672,-0c-0.189,-0 -0.284,0.095 -0.284,0.284l0,67.715l-29.527,-0l-0,-90.713l29.527,0l0,5.821c5.016,-3.881 12.351,-5.821 22.004,-5.821c9.843,0 14.764,3.833 14.764,11.499l-0,84.608c-0,0.189 0.095,0.284 0.284,0.284l36.484,0l-0,22.572l-51.39,-0Zm21.862,-28.25l-0,-90.713l29.528,0l-0,90.713l-29.528,-0Zm51.389,-0c-9.842,-0 -14.763,-3.739 -14.763,-11.215l-0,-67.999c-0,-7.666 4.921,-11.499 14.763,-11.499l36.768,0c9.843,0 14.764,3.833 14.764,11.499l-0,26.83l-29.528,0l0,-15.331c0,-0.189 -0.094,-0.284 -0.284,-0.284l-6.672,-0c-0.189,-0 -0.284,0.095 -0.284,0.284l0,44.859c0,0.189 0.095,0.284 0.284,0.284l6.672,0c0.19,0 0.284,-0.095 0.284,-0.284l0,-21.152l29.528,0l-0,32.793c-0,7.476 -4.921,11.215 -14.764,11.215l-36.768,-0Zm58.63,28.25l-0,-118.963l29.528,0l-0,96.391l73.393,0l-0,22.572l-102.921,-0Zm51.389,-28.25c-9.842,-0 -14.763,-3.739 -14.763,-11.215l-0,-67.999c-0,-7.666 4.921,-11.499 14.763,-11.499l36.768,0c9.843,0 14.764,3.833 14.764,11.499l-0,45.285l-36.768,0l0,11.073c0,0.189 0.095,0.284 0.284,0.284l6.672,0c0.189,0 0.284,-0.095 0.284,-0.284l0,-5.394l29.528,-0l-0,17.035c-0,7.476 -4.921,11.215 -14.764,11.215l-36.768,-0Zm22.004,-67.715c0,-0.189 -0.095,-0.284 -0.284,-0.284l-6.672,-0c-0.189,-0 -0.284,0.095 -0.284,0.284l0,12.634l7.24,0l0,-12.634Zm51.106,67.715c-9.843,-0 -14.764,-3.739 -14.764,-11.215l-0,-17.035l29.528,-0l-0,5.394c-0,0.189 0.094,0.284 0.283,0.284l6.673,0c0.189,0 0.283,-0.095 0.283,-0.284l0,-10.789c0,-0.189 -0.094,-0.284 -0.283,-0.284l-21.72,0c-9.843,0 -14.764,-3.833 -14.764,-11.498l-0,-33.787c-0,-7.666 4.921,-11.499 14.764,-11.499l36.767,0c9.843,0 14.764,3.833 14.764,11.499l0,16.751l-29.528,0l0,-5.252c0,-0.189 -0.094,-0.284 -0.283,-0.284l-6.673,-0c-0.189,-0 -0.283,0.095 -0.283,0.284l-0,10.789c-0,0.189 0.094,0.284 0.283,0.284l21.72,-0c9.843,-0 14.764,3.738 14.764,11.215l0,34.212c0,7.476 -4.921,11.215 -14.764,11.215l-36.767,-0Z" style="fill:none;stroke:#000;stroke-width:4px;"/>
        <path id="BG" d="M87.947,0l117.916,98.057l16.822,69.537l33.561,-51.632l64.292,27.286l127.789,-131.882l46.967,144.61l90.074,-100.286l125.583,141.3l23.723,-56.586l114.286,-83.644l43.277,75.932l-3.139,44.12l-19.383,11.859l-57.657,135.273l180.379,189.468l-73.45,139.2l-203.977,-149.78l-144.701,90.688l-41.466,-92.836l0.565,70.027l-37.433,22.687l-142.806,-67.36l-17.996,63.132l-94.981,-53.607l-141.892,109.615l-94.3,-144.412l139.253,-169.398l-30.949,-18.91l-26.121,-78.727l10.336,-6.189l25.553,11.641l-43.2,-222.362l13.075,-16.821Z" style="fill:#fff;"/>
        <path id="Main" d="M87.947,0l117.916,98.057l16.822,69.537l33.561,-51.632l64.292,27.286l127.789,-131.882l46.967,144.61l90.074,-100.286l125.583,141.3l23.723,-56.586l114.286,-83.644l43.277,75.932l-3.139,44.12l-19.383,11.859l-57.657,135.273l180.379,189.468l-73.45,139.2l-203.977,-149.78l-144.701,90.688l-41.466,-92.836l0.565,70.027l-37.433,22.687l-142.806,-67.36l-17.996,63.132l-94.981,-53.607l-141.892,109.615l-94.3,-144.412l139.253,-169.398l-30.949,-18.91l-26.121,-78.727l10.336,-6.189l25.553,11.641l-43.2,-222.362l13.075,-16.821Zm-50.186,492.27l61.448,92.136l166.63,-130.969l10.731,-47.745l-9.749,-6.498l-121.85,87.461l30.269,-67.082l-24.201,-65.266l-113.278,137.963Zm580.876,-277.503l-22.644,86.418l13.402,98.434l46.213,-24.493l12.246,41.361l-50.603,30.269l17.099,47.368l88.96,-55.455l-69.551,-184.159l-35.122,-39.743Zm3.135,142.092l11.712,-58.088l13.96,44.72l-25.672,13.368Zm-514.08,-303.91l43.324,214.366l-12.185,-4.512l13.635,45.866l9.464,1.922l29.161,130.576l33.938,-23.468l-10.47,-66.792l81.955,41.159l-30.327,102.058l50.184,34.775l17.691,-63.182l165.398,79.982l0.469,-49.868l-107.933,-316.654l40.053,-44.001l2.821,-72.208l-212.674,230.162l91.387,-121.85l-52.463,-21.437l-64.31,106.055l-24.821,-151.777l-64.297,-51.172Zm201.153,273.357l46.935,20.98l23.467,-73.269l29.335,113.727l-151.185,-78.525l97.029,-94.452l-45.581,111.539Zm40.078,88.509l86.197,41.519l18.955,21.211l-108.763,-54.155l3.611,-8.575Zm131.765,1.519l-0.148,-118.936l96.958,236.226c0,0 44.954,-29.969 45.835,-29.969c0.31,0 -30.403,-93.59 -30.403,-93.59l-13.521,-305.944l-43.326,49.533l9.404,198.022l-101.715,-232.695l-2.993,182.061l39.909,115.292Zm115.305,-240.806l115.726,135.12l-19.406,15.658l30.997,52.036l18.195,-24.035l76.269,96.243l-100.188,-61.828l20.308,68.146l174.201,133.584l42.422,-74.915l-190.448,-207.597l53.705,-122.753l33.847,-40.165l-19.857,-40.901l-67.243,47.67l-36.104,108.763l-132.424,-150.448l0,65.422Z"/>
    </g>
    <g id="Kanax-Logo-Min" serif:id="Kanax Logo Min">
        <path id="BG1" serif:id="BG" d="M87.947,0l117.916,98.057l16.822,69.537l33.561,-51.632l64.292,27.286l127.789,-131.882l46.967,144.61l90.074,-100.286l125.583,141.3l23.723,-56.586l114.286,-83.644l43.277,75.932l-3.139,44.12l-19.383,11.859l-57.657,135.273l180.379,189.468l-73.45,139.2l-203.977,-149.78l-144.701,90.688l-41.466,-92.836l0.565,70.027l-37.433,22.687l-142.806,-67.36l-17.996,63.132l-94.981,-53.607l-141.892,109.615l-94.3,-144.412l139.253,-169.398l-30.949,-18.91l-26.121,-78.727l10.336,-6.189l25.553,11.641l-43.2,-222.362l13.075,-16.821Z" style="fill:#fff;"/>
        <path id="Main1" serif:id="Main" d="M87.947,0l117.916,98.057l16.822,69.537l33.561,-51.632l64.292,27.286l127.789,-131.882l46.967,144.61l90.074,-100.286l125.583,141.3l23.723,-56.586l114.286,-83.644l43.277,75.932l-3.139,44.12l-19.383,11.859l-57.657,135.273l180.379,189.468l-73.45,139.2l-203.977,-149.78l-144.701,90.688l-41.466,-92.836l0.565,70.027l-37.433,22.687l-142.806,-67.36l-17.996,63.132l-94.981,-53.607l-141.892,109.615l-94.3,-144.412l139.253,-169.398l-30.949,-18.91l-26.121,-78.727l10.336,-6.189l25.553,11.641l-43.2,-222.362l13.075,-16.821Zm-50.186,492.27l61.448,92.136l166.63,-130.969l10.731,-47.745l-9.749,-6.498l-121.85,87.461l30.269,-67.082l-24.201,-65.266l-113.278,137.963Zm580.876,-277.503l-22.644,86.418l13.402,98.434l46.213,-24.493l12.246,41.361l-50.603,30.269l17.099,47.368l88.96,-55.455l-69.551,-184.159l-35.122,-39.743Zm3.135,142.092l11.712,-58.088l13.96,44.72l-25.672,13.368Zm-514.08,-303.91l43.324,214.366l-12.185,-4.512l13.635,45.866l9.464,1.922l29.161,130.576l33.938,-23.468l-10.47,-66.792l81.955,41.159l-30.327,102.058l50.184,34.775l17.691,-63.182l165.398,79.982l0.469,-49.868l-107.933,-316.654l40.053,-44.001l2.821,-72.208l-212.674,230.162l91.387,-121.85l-52.463,-21.437l-64.31,106.055l-24.821,-151.777l-64.297,-51.172Zm201.153,273.357l46.935,20.98l23.467,-73.269l29.335,113.727l-151.185,-78.525l97.029,-94.452l-45.581,111.539Zm40.078,88.509l86.197,41.519l18.955,21.211l-108.763,-54.155l3.611,-8.575Zm131.765,1.519l-0.148,-118.936l96.958,236.226c0,0 44.954,-29.969 45.835,-29.969c0.31,0 -30.403,-93.59 -30.403,-93.59l-13.521,-305.944l-43.326,49.533l9.404,198.022l-101.715,-232.695l-2.993,182.061l39.909,115.292Zm115.305,-240.806l115.726,135.12l-19.406,15.658l30.997,52.036l18.195,-24.035l76.269,96.243l-100.188,-61.828l20.308,68.146l174.201,133.584l42.422,-74.915l-190.448,-207.597l53.705,-122.753l33.847,-40.165l-19.857,-40.901l-67.243,47.67l-36.104,108.763l-132.424,-150.448l0,65.422Z"/>
    </g>
</svg>
