<?xml version="1.0" encoding="UTF-8" standalone="no"?><!DOCTYPE svg PUBLIC "-//W3C//DTD SVG 1.1//EN" "http://www.w3.org/Graphics/SVG/1.1/DTD/svg11.dtd"><svg width="3100px" height="2038px" version="1.1" xmlns="http://www.w3.org/2000/svg" xmlns:xlink="http://www.w3.org/1999/xlink" xml:space="preserve" xmlns:serif="http://www.serif.com/" style="fill-rule:evenodd;clip-rule:evenodd;stroke-linejoin:round;stroke-miterlimit:2;"><g id="Kanax-Logo-Min" serif:id="Kanax Logo Min"><path id="BG" d="M274.834,0l368.487,306.428l52.569,217.302l104.878,-161.35l200.913,85.271l399.34,-412.133l146.774,451.906l281.48,-313.393l392.448,441.562l74.132,-176.83l357.146,-261.388l135.238,237.288l-9.809,137.873l-60.57,37.062l-180.178,422.728l563.683,592.087l-229.53,434.999l-637.428,-468.061l-452.191,283.398l-129.58,-290.111l1.763,218.834l-116.977,70.895l-446.27,-210.498l-56.238,197.288l-296.814,-167.523l-443.413,342.546l-294.687,-451.287l435.164,-529.368l-96.714,-59.094l-81.627,-246.02l32.297,-19.343l79.856,36.379l-135,-694.88l40.858,-52.567Z" style="fill:#fff;"/><path id="Main" d="M274.834,0l368.487,306.428l52.569,217.302l104.878,-161.35l200.913,85.271l399.34,-412.133l146.774,451.906l281.48,-313.393l392.448,441.562l74.132,-176.83l357.146,-261.388l135.238,237.288l-9.809,137.873l-60.57,37.062l-180.178,422.728l563.683,592.087l-229.53,434.999l-637.428,-468.061l-452.191,283.398l-129.58,-290.111l1.763,218.834l-116.977,70.895l-446.27,-210.498l-56.238,197.288l-296.814,-167.523l-443.413,342.546l-294.687,-451.287l435.164,-529.368l-96.714,-59.094l-81.627,-246.02l32.297,-19.343l79.856,36.379l-135,-694.88l40.858,-52.567Zm-156.831,1538.35l192.026,287.924l520.717,-409.28l33.534,-149.201l-30.463,-20.308l-380.783,273.317l94.592,-209.632l-75.63,-203.955l-353.993,431.135Zm1815.24,-867.197l-70.763,270.056l41.88,307.605l144.415,-76.54l38.27,129.251l-158.134,94.592l53.433,148.026l277.999,-173.298l-217.344,-575.495l-109.756,-124.197Zm9.794,444.037l36.601,-181.524l43.625,139.748l-80.226,41.776Zm-1606.5,-949.718l135.389,669.894l-38.078,-14.103l42.608,143.332l29.577,6.008l91.127,408.048l106.055,-73.336l-32.719,-208.724l256.111,128.619l-94.772,318.933l156.825,108.671l55.284,-197.442l516.867,249.942l1.467,-155.838l-337.289,-989.542l125.164,-137.504l8.814,-225.649l-664.605,719.255l285.586,-380.782l-163.947,-66.989l-200.969,331.421l-77.566,-474.304l-200.929,-159.91Zm628.603,854.239l146.672,65.564l73.336,-228.965l91.669,355.396l-472.451,-245.393l303.215,-295.16l-142.441,348.558Zm125.244,276.591l269.367,129.748l59.233,66.284l-339.883,-169.236l11.283,-26.796Zm411.765,4.746l-0.463,-371.673l302.996,738.206c-0,0 140.479,-93.653 143.234,-93.653c0.968,0 -95.009,-292.47 -95.009,-292.47l-42.254,-956.076l-135.393,154.792l29.387,618.818l-317.861,-727.17l-9.352,568.941l124.715,360.285Zm360.33,-752.518l361.643,422.249l-60.643,48.932l96.863,162.613l56.86,-75.109l238.341,300.758l-313.087,-193.212l63.463,212.956l544.378,417.45l132.568,-234.11l-595.148,-648.74l167.826,-383.603l105.773,-125.517l-62.053,-127.815l-210.136,148.97l-112.824,339.883l-413.824,-470.15l-0,204.445Z"/></g></svg>